%FSLAX43Y43*%
%MOMM*%
G71*
G01*
G75*
G04 Layer_Color=8421504*
%ADD10R,0.650X0.600*%
%ADD11R,0.500X0.600*%
%ADD12R,0.800X0.800*%
%ADD13R,0.900X1.300*%
%ADD14R,1.300X0.900*%
%ADD15R,0.800X0.800*%
%ADD16R,0.850X0.600*%
%ADD17R,0.600X0.850*%
%ADD18R,0.600X0.650*%
%ADD19R,0.600X0.500*%
%ADD20O,1.800X0.300*%
%ADD21O,0.300X1.800*%
%ADD22O,2.100X0.450*%
%ADD23R,2.400X3.300*%
%ADD24R,2.400X1.000*%
%ADD25O,0.510X2.000*%
%ADD26R,0.510X2.000*%
%ADD27R,2.400X2.500*%
%ADD28R,2.500X2.500*%
%ADD29O,1.650X0.550*%
%ADD30O,0.700X0.200*%
%ADD31O,0.200X0.700*%
%ADD32C,0.254*%
%ADD33C,0.200*%
%ADD34C,1.000*%
%ADD35C,0.250*%
%ADD36C,1.500*%
%ADD37C,0.500*%
%ADD38C,0.245*%
%ADD39O,1.800X1.524*%
%ADD40O,1.800X1.500*%
%ADD41O,5.000X4.000*%
%ADD42C,3.000*%
%ADD43P,1.524X8X112.5*%
%ADD44C,0.600*%
%ADD45C,5.000*%
%ADD46C,1.700*%
%ADD47O,1.700X3.556*%
G04:AMPARAMS|DCode=48|XSize=2.032mm|YSize=1.524mm|CornerRadius=0mm|HoleSize=0mm|Usage=FLASHONLY|Rotation=270.000|XOffset=0mm|YOffset=0mm|HoleType=Round|Shape=Octagon|*
%AMOCTAGOND48*
4,1,8,-0.381,-1.016,0.381,-1.016,0.762,-0.635,0.762,0.635,0.381,1.016,-0.381,1.016,-0.762,0.635,-0.762,-0.635,-0.381,-1.016,0.0*
%
%ADD48OCTAGOND48*%

%ADD49O,2.400X1.800*%
%ADD50R,2.400X1.800*%
G04:AMPARAMS|DCode=51|XSize=1.2mm|YSize=1.6mm|CornerRadius=0.3mm|HoleSize=0mm|Usage=FLASHONLY|Rotation=270.000|XOffset=0mm|YOffset=0mm|HoleType=Round|Shape=RoundedRectangle|*
%AMROUNDEDRECTD51*
21,1,1.200,1.000,0,0,270.0*
21,1,0.600,1.600,0,0,270.0*
1,1,0.600,-0.500,-0.300*
1,1,0.600,-0.500,0.300*
1,1,0.600,0.500,0.300*
1,1,0.600,0.500,-0.300*
%
%ADD51ROUNDEDRECTD51*%
%ADD52R,1.600X1.200*%
%ADD53C,1.397*%
%ADD54C,3.800*%
%ADD55O,1.600X1.900*%
%ADD56R,1.600X1.900*%
%ADD57C,2.032*%
%ADD58R,2.032X2.032*%
%ADD59C,1.500*%
%ADD60R,1.500X1.500*%
%ADD61R,1.500X1.500*%
%ADD62C,2.500*%
%ADD63P,2.337X8X202.5*%
%ADD64C,0.700*%
%ADD65C,1.000*%
%ADD66C,0.255*%
%ADD67C,0.800*%
%ADD68C,0.178*%
%ADD69C,0.860*%
%ADD70C,0.127*%
%ADD71C,0.600*%
%ADD72C,0.152*%
%ADD73C,0.203*%
%ADD74C,0.762*%
%ADD75C,0.051*%
%ADD76C,0.120*%
%ADD77C,0.150*%
%ADD78R,17.755X3.175*%
%ADD79R,2.159X1.905*%
%ADD80R,0.508X0.508*%
%ADD81R,1.778X0.254*%
D10*
X164597Y144564D02*
D03*
X162047D02*
D03*
X164597Y142964D02*
D03*
X162047D02*
D03*
X168915Y144564D02*
D03*
X166365D02*
D03*
X168915Y142964D02*
D03*
X166365D02*
D03*
X173233Y144564D02*
D03*
X170683D02*
D03*
X173233Y142964D02*
D03*
X170683D02*
D03*
X164597Y138976D02*
D03*
X162047D02*
D03*
X164597Y137376D02*
D03*
X162047D02*
D03*
X168915Y138976D02*
D03*
X166365D02*
D03*
X168915Y137376D02*
D03*
X166365D02*
D03*
X164597Y134277D02*
D03*
X162047D02*
D03*
X164597Y132677D02*
D03*
X162047D02*
D03*
X164597Y129578D02*
D03*
X162047D02*
D03*
X164597Y127978D02*
D03*
X162047D02*
D03*
X168915Y129578D02*
D03*
X166365D02*
D03*
X168915Y127978D02*
D03*
X166365D02*
D03*
X173233Y129578D02*
D03*
X170683D02*
D03*
X173233Y127978D02*
D03*
X170683D02*
D03*
X168915Y134277D02*
D03*
X166365D02*
D03*
X168915Y132677D02*
D03*
X166365D02*
D03*
X173233Y134277D02*
D03*
X170683D02*
D03*
X173233Y132677D02*
D03*
X170683D02*
D03*
D11*
X163722Y144564D02*
D03*
X162922D02*
D03*
X163722Y142964D02*
D03*
X162922D02*
D03*
X168040Y144564D02*
D03*
X167240D02*
D03*
X168040Y142964D02*
D03*
X167240D02*
D03*
X172358Y144564D02*
D03*
X171558D02*
D03*
X172358Y142964D02*
D03*
X171558D02*
D03*
X163722Y138976D02*
D03*
X162922D02*
D03*
X163722Y137376D02*
D03*
X162922D02*
D03*
X168040Y138976D02*
D03*
X167240D02*
D03*
X168040Y137376D02*
D03*
X167240D02*
D03*
X163722Y134277D02*
D03*
X162922D02*
D03*
X163722Y132677D02*
D03*
X162922D02*
D03*
X163722Y129578D02*
D03*
X162922D02*
D03*
X163722Y127978D02*
D03*
X162922D02*
D03*
X168040Y129578D02*
D03*
X167240D02*
D03*
X168040Y127978D02*
D03*
X167240D02*
D03*
X172358Y129578D02*
D03*
X171558D02*
D03*
X172358Y127978D02*
D03*
X171558D02*
D03*
X168040Y134277D02*
D03*
X167240D02*
D03*
X168040Y132677D02*
D03*
X167240D02*
D03*
X172358Y134277D02*
D03*
X171558D02*
D03*
X172358Y132677D02*
D03*
X171558D02*
D03*
D12*
X141224Y81927D02*
D03*
Y83427D02*
D03*
Y87491D02*
D03*
Y85991D02*
D03*
X166878Y82411D02*
D03*
Y80911D02*
D03*
X115062Y137934D02*
D03*
Y139434D02*
D03*
X79502Y125615D02*
D03*
Y127115D02*
D03*
X142748Y134251D02*
D03*
Y135751D02*
D03*
X161290Y95389D02*
D03*
Y96889D02*
D03*
X159258Y95389D02*
D03*
Y96889D02*
D03*
X153924Y142887D02*
D03*
Y144387D02*
D03*
D13*
X154239Y109093D02*
D03*
X152339D02*
D03*
X158557Y112268D02*
D03*
X156657D02*
D03*
X158557Y103632D02*
D03*
X156657D02*
D03*
X158557Y121158D02*
D03*
X156657D02*
D03*
D14*
X161163Y121092D02*
D03*
Y119192D02*
D03*
Y103566D02*
D03*
Y101666D02*
D03*
Y112329D02*
D03*
Y110429D02*
D03*
D15*
X154039Y112141D02*
D03*
X152539D02*
D03*
X91301Y128143D02*
D03*
X89801D02*
D03*
X75069Y83566D02*
D03*
X76569D02*
D03*
X139307Y147193D02*
D03*
X137807D02*
D03*
X175502Y106172D02*
D03*
X174002D02*
D03*
X75196Y79248D02*
D03*
X76696D02*
D03*
X120561Y144653D02*
D03*
X118961D02*
D03*
X114084D02*
D03*
X112484D02*
D03*
X107607D02*
D03*
X106007D02*
D03*
X101130D02*
D03*
X99530D02*
D03*
X94653D02*
D03*
X93053D02*
D03*
D16*
X139700Y127127D02*
D03*
Y128371D02*
D03*
X137795Y117475D02*
D03*
Y118719D02*
D03*
X108204Y104394D02*
D03*
Y103150D02*
D03*
X137795Y127127D02*
D03*
Y128371D02*
D03*
X115189Y133858D02*
D03*
Y132614D02*
D03*
X142748Y137668D02*
D03*
Y138912D02*
D03*
X133985Y127127D02*
D03*
Y128371D02*
D03*
X135890Y128397D02*
D03*
Y127153D02*
D03*
X153924Y139954D02*
D03*
Y138710D02*
D03*
X160782Y85217D02*
D03*
Y86461D02*
D03*
X164846Y86487D02*
D03*
Y85243D02*
D03*
X162814Y85217D02*
D03*
Y86461D02*
D03*
X166878Y86487D02*
D03*
Y85243D02*
D03*
X94615Y86233D02*
D03*
Y84989D02*
D03*
X117221Y139446D02*
D03*
Y138202D02*
D03*
X145034Y150749D02*
D03*
Y151993D02*
D03*
X117221Y132588D02*
D03*
Y133832D02*
D03*
X147574Y102108D02*
D03*
Y103352D02*
D03*
X145796Y102108D02*
D03*
Y103352D02*
D03*
X144018Y103378D02*
D03*
Y102134D02*
D03*
X142240Y103378D02*
D03*
Y102134D02*
D03*
X153924Y135636D02*
D03*
Y134392D02*
D03*
X99060Y133871D02*
D03*
Y135115D02*
D03*
X101600Y125975D02*
D03*
Y127219D02*
D03*
X100076Y127219D02*
D03*
Y125975D02*
D03*
X96520Y127241D02*
D03*
Y125997D02*
D03*
X97917Y127254D02*
D03*
Y126010D02*
D03*
X95123Y133858D02*
D03*
Y135102D02*
D03*
X96774Y133858D02*
D03*
Y135102D02*
D03*
D17*
X135255Y105156D02*
D03*
X136499D02*
D03*
X134112Y101473D02*
D03*
X135356D02*
D03*
X136525Y103378D02*
D03*
X135281D02*
D03*
X149733Y93218D02*
D03*
X148489D02*
D03*
X151892D02*
D03*
X153136D02*
D03*
X169418Y86106D02*
D03*
X170662D02*
D03*
X120142Y142748D02*
D03*
X118898D02*
D03*
X113792D02*
D03*
X112548D02*
D03*
X107315D02*
D03*
X106071D02*
D03*
X100838D02*
D03*
X99594D02*
D03*
X94361D02*
D03*
X93117D02*
D03*
X150495Y142621D02*
D03*
X149251D02*
D03*
X153162Y90551D02*
D03*
X151918D02*
D03*
D18*
X128740Y154818D02*
D03*
Y152268D02*
D03*
X130340Y154818D02*
D03*
Y152268D02*
D03*
X128740Y146436D02*
D03*
Y143886D02*
D03*
X130340Y146436D02*
D03*
Y143886D02*
D03*
X128740Y148077D02*
D03*
Y150627D02*
D03*
X130340Y148077D02*
D03*
Y150627D02*
D03*
X133261Y89022D02*
D03*
Y91572D02*
D03*
X131661Y89022D02*
D03*
Y91572D02*
D03*
X138722Y89022D02*
D03*
Y91572D02*
D03*
X137122Y89022D02*
D03*
Y91572D02*
D03*
D19*
X128740Y153943D02*
D03*
Y153143D02*
D03*
X130340Y153943D02*
D03*
Y153143D02*
D03*
X128740Y145561D02*
D03*
Y144761D02*
D03*
X130340Y145561D02*
D03*
Y144761D02*
D03*
X128740Y148952D02*
D03*
Y149752D02*
D03*
X130340Y148952D02*
D03*
Y149752D02*
D03*
X133261Y89897D02*
D03*
Y90697D02*
D03*
X131661Y89897D02*
D03*
Y90697D02*
D03*
X138722Y89897D02*
D03*
Y90697D02*
D03*
X137122Y89897D02*
D03*
Y90697D02*
D03*
D20*
X110608Y106439D02*
D03*
Y106939D02*
D03*
Y107439D02*
D03*
Y107939D02*
D03*
Y108439D02*
D03*
Y108939D02*
D03*
Y109439D02*
D03*
Y109939D02*
D03*
Y110439D02*
D03*
Y110939D02*
D03*
Y111439D02*
D03*
Y111939D02*
D03*
Y112439D02*
D03*
Y112939D02*
D03*
Y113439D02*
D03*
Y113939D02*
D03*
Y114439D02*
D03*
Y114939D02*
D03*
Y115439D02*
D03*
Y115939D02*
D03*
Y116439D02*
D03*
Y116939D02*
D03*
Y117439D02*
D03*
Y117939D02*
D03*
Y118439D02*
D03*
Y118939D02*
D03*
Y119439D02*
D03*
Y119939D02*
D03*
Y120439D02*
D03*
Y120939D02*
D03*
Y121439D02*
D03*
Y121939D02*
D03*
Y122439D02*
D03*
Y122939D02*
D03*
Y123439D02*
D03*
Y123939D02*
D03*
X131708D02*
D03*
Y123439D02*
D03*
Y122939D02*
D03*
Y122439D02*
D03*
Y121939D02*
D03*
Y121439D02*
D03*
Y120939D02*
D03*
Y120439D02*
D03*
Y119939D02*
D03*
Y119439D02*
D03*
Y118939D02*
D03*
Y118439D02*
D03*
Y117939D02*
D03*
Y117439D02*
D03*
Y116939D02*
D03*
Y116439D02*
D03*
Y115939D02*
D03*
Y115439D02*
D03*
Y114939D02*
D03*
Y114439D02*
D03*
Y113939D02*
D03*
Y113439D02*
D03*
Y112939D02*
D03*
Y112439D02*
D03*
Y111939D02*
D03*
Y111439D02*
D03*
Y110939D02*
D03*
Y110439D02*
D03*
Y109939D02*
D03*
Y109439D02*
D03*
Y108939D02*
D03*
Y108439D02*
D03*
Y107939D02*
D03*
Y107439D02*
D03*
Y106939D02*
D03*
Y106439D02*
D03*
D21*
X112408Y125739D02*
D03*
X112908D02*
D03*
X113408D02*
D03*
X113908D02*
D03*
X114408D02*
D03*
X114908D02*
D03*
X115408D02*
D03*
X115908D02*
D03*
X116408D02*
D03*
X116908D02*
D03*
X117408D02*
D03*
X117908D02*
D03*
X118408D02*
D03*
X118908D02*
D03*
X119408D02*
D03*
X119908D02*
D03*
X120408D02*
D03*
X120908D02*
D03*
X121408D02*
D03*
X121908D02*
D03*
X122408D02*
D03*
X122908D02*
D03*
X123408D02*
D03*
X123908D02*
D03*
X124408D02*
D03*
X124908D02*
D03*
X125408D02*
D03*
X125908D02*
D03*
X126408D02*
D03*
X126908D02*
D03*
X127408D02*
D03*
X127908D02*
D03*
X128408D02*
D03*
X128908D02*
D03*
X129408D02*
D03*
X129908D02*
D03*
Y104639D02*
D03*
X129408D02*
D03*
X128908D02*
D03*
X128408D02*
D03*
X127908D02*
D03*
X127408D02*
D03*
X126908D02*
D03*
X126408D02*
D03*
X125908D02*
D03*
X125408D02*
D03*
X124908D02*
D03*
X124408D02*
D03*
X123908D02*
D03*
X123408D02*
D03*
X122908D02*
D03*
X122408D02*
D03*
X121908D02*
D03*
X121408D02*
D03*
X120908D02*
D03*
X120408D02*
D03*
X119908D02*
D03*
X119408D02*
D03*
X118908D02*
D03*
X118408D02*
D03*
X117908D02*
D03*
X117408D02*
D03*
X116908D02*
D03*
X116408D02*
D03*
X115908D02*
D03*
X115408D02*
D03*
X114908D02*
D03*
X114408D02*
D03*
X113908D02*
D03*
X113408D02*
D03*
X112908D02*
D03*
X112408D02*
D03*
D22*
X150703Y87530D02*
D03*
Y86880D02*
D03*
Y86230D02*
D03*
Y85580D02*
D03*
Y84930D02*
D03*
Y84280D02*
D03*
Y83630D02*
D03*
Y82980D02*
D03*
Y82330D02*
D03*
Y81680D02*
D03*
Y81030D02*
D03*
Y80380D02*
D03*
Y79730D02*
D03*
Y79080D02*
D03*
X157603Y87530D02*
D03*
Y86880D02*
D03*
Y86230D02*
D03*
Y85580D02*
D03*
Y84930D02*
D03*
Y84280D02*
D03*
Y83630D02*
D03*
Y82980D02*
D03*
Y82330D02*
D03*
Y81680D02*
D03*
Y81030D02*
D03*
Y80380D02*
D03*
Y79730D02*
D03*
Y79080D02*
D03*
D23*
X170540Y118745D02*
D03*
X170667Y101346D02*
D03*
Y109982D02*
D03*
D24*
X164740Y116445D02*
D03*
Y118745D02*
D03*
Y121045D02*
D03*
X164867Y99046D02*
D03*
Y101346D02*
D03*
Y103646D02*
D03*
Y107682D02*
D03*
Y109982D02*
D03*
Y112282D02*
D03*
D25*
X140081Y138790D02*
D03*
X138811D02*
D03*
X137541D02*
D03*
X136271D02*
D03*
X140081Y133350D02*
D03*
X138811D02*
D03*
X137541D02*
D03*
X147955Y134260D02*
D03*
X149225D02*
D03*
X150495D02*
D03*
X151765D02*
D03*
X147955Y139700D02*
D03*
X149225D02*
D03*
X150495D02*
D03*
X123571Y138790D02*
D03*
X122301D02*
D03*
X121031D02*
D03*
X119761D02*
D03*
X123571Y133350D02*
D03*
X122301D02*
D03*
X121031D02*
D03*
D26*
X136271D02*
D03*
X151765Y139700D02*
D03*
X119761Y133350D02*
D03*
D27*
X108236Y133271D02*
D03*
Y139271D02*
D03*
D28*
X112236D02*
D03*
Y133271D02*
D03*
D29*
X103492Y107297D02*
D03*
Y108097D02*
D03*
Y108897D02*
D03*
Y109697D02*
D03*
Y110497D02*
D03*
Y111297D02*
D03*
Y112097D02*
D03*
Y112897D02*
D03*
Y113697D02*
D03*
Y114497D02*
D03*
Y115297D02*
D03*
Y116097D02*
D03*
Y116897D02*
D03*
Y117697D02*
D03*
Y118497D02*
D03*
Y119297D02*
D03*
Y120097D02*
D03*
Y120897D02*
D03*
Y121697D02*
D03*
Y122497D02*
D03*
Y123297D02*
D03*
Y124097D02*
D03*
X92342Y107297D02*
D03*
Y108097D02*
D03*
Y108897D02*
D03*
Y109697D02*
D03*
Y110497D02*
D03*
Y111297D02*
D03*
Y112097D02*
D03*
Y112897D02*
D03*
Y113697D02*
D03*
Y114497D02*
D03*
Y115297D02*
D03*
Y116097D02*
D03*
Y116897D02*
D03*
Y117697D02*
D03*
Y118497D02*
D03*
Y119297D02*
D03*
Y120097D02*
D03*
Y120897D02*
D03*
Y121697D02*
D03*
Y122497D02*
D03*
Y123297D02*
D03*
Y124097D02*
D03*
D30*
X99426Y129911D02*
D03*
X99426Y130311D02*
D03*
X99426Y130711D02*
D03*
X99426Y131111D02*
D03*
X99426Y131511D02*
D03*
X99426Y131911D02*
D03*
X96326D02*
D03*
X96326Y131511D02*
D03*
X96326Y131111D02*
D03*
Y130711D02*
D03*
X96326Y130311D02*
D03*
X96326Y129911D02*
D03*
D31*
X98876Y132461D02*
D03*
X98476D02*
D03*
X98076Y132461D02*
D03*
X97676D02*
D03*
X97276Y132461D02*
D03*
X96876Y132461D02*
D03*
X96876Y129361D02*
D03*
X97276D02*
D03*
X97676D02*
D03*
X98076D02*
D03*
X98476D02*
D03*
X98876D02*
D03*
M02*
