M48
;Layer_Color=9474304
;FILE_FORMAT=4:3
METRIC,LZ
;TYPE=PLATED
T1F00S00C0.300
T2F00S00C0.635
T3F00S00C0.700
T4F00S00C0.900
T5F00S00C1.000
T6F00S00C1.016
T7F00S00C1.100
T8F00S00C1.190
T9F00S00C1.270
T10F00S00C1.500
T11F00S00C2.300
T12F00S00C2.500
T13F00S00C3.150
T14F00S00C3.180
%
T01
X01868Y0079358
X0188214Y0078772
X0189628Y0079358
X0073533Y0079248
X0057421Y0079358
X0056007Y0078772
X0054593Y0079358
X0054007Y0080772
X0054593Y0082186
X0056007Y0082772
X0057421Y0082186
X0058007Y0080772
X0088138Y0113411
X0088646Y0113919
X0089154Y0114427
X0089617Y011489
X0096647Y0117602
X009958Y011736
Y0116725
X0099072Y0116217
X009958Y0117995
X010541Y0116078
X0106196Y0115824
X0106819Y0115201
X0108204Y0114173
X0108712Y0110668
X0112395Y0113411
Y0114808
X0115697
X0117729Y0113411
X0113919Y011811
Y0118872
X0114681Y0106299
X011303
X0117348Y0101727
Y0100584
X0118491Y0100711
X0117983Y0099314
X0118872Y0098425
X0118999Y0097028
X0118872Y0095949
X011811Y0097536
X0116967Y0085598
X0107162Y010315
X0124431Y0102685
X0124587Y0107061
X0125984Y0106934
X0127381Y0107061
X0129413Y0106553
X012827Y0109474
Y0110109
X0125984Y0110236
X0125603Y0109728
X0123317
X0122936Y0115189
X0121539
X0124206Y0115951
X0122936Y0117348
X0120904Y0118618
X0126238Y0113665
X0129159
X0129413Y0115824
X0134874Y0116459
X0135001Y0114681
X0134366Y0113919
X0135636Y0112522
X0137287Y0111887
X013843Y0111252
Y011303
X0137414Y0114173
X0137287Y0109855
Y0108189
X013843Y0108839
Y0107315
X0137795Y0105156
X0137033Y0102108
X0130937Y0102743
X0131064Y0101189
X012954Y0101473
X0129794Y0099949
X0128397Y0098933
X0126492Y0091948
X0125222Y0092075
X012573Y0091186
X0123063Y0092202
X0122174Y0092964
X0121412Y0093726
X012065Y0094488
X0119703Y0095181
X0135255Y009271
Y0091186
Y0089652
Y0088138
X0137033Y008255
X0148717Y0083693
Y0086106
Y0080772
X0152889Y008168
X0152702Y008428
X015548Y0084201
X0155575Y008255
X0147574Y0091694
X0140843Y0091948
X0141224Y0092583
X0140462Y0092613
X014986Y0098298
X0149225Y0100076
X014859Y0100457
X014856Y0099695
X0153416Y0100076
X0154051Y0099695
X0154081Y0100457
X0154178Y0103632
X0154208Y0104394
X0153543Y0104013
X0151257Y0105791
X0149352Y010541
X0148971Y0105791
X0148941Y0105029
X0154239Y0113599
X0153416Y011811
X0153797Y0118745
X0153035Y0118775
X0158623Y0118745
X0137795Y0118999
X0135255Y0108077
X0159131Y0109982
X0159766Y0109601
X0159796Y0110363
X0159766Y0111887
Y0112649
X0162941
Y0111887
Y0104013
Y0103251
X0159766
Y0104013
Y0101854
X0159736Y0101092
X0160401Y0101473
X0160147Y0099822
X0160117Y009906
X0160782Y0099441
X0160274Y0095377
X0164846Y009017
Y0084201
X0160528Y0082296
Y0079629
X0170942Y0086106
X0169164Y0092329
X01868Y0082186
X0186214Y0080772
X0190214
X0189628Y0082186
X0188214Y0082772
X0159258Y0118364
X0159288Y0119126
X0159766Y012065
Y0121539
X0162814
Y012065
X01868Y0151494
X0188214Y0150908
X0189628Y0151494
X0190214Y0152908
X0189628Y0154322
X0188214Y0154908
X01868Y0154322
X0186214Y0152908
X0149225Y0141224
X0147955
X0148209Y0137922
X0147828Y0137287
X014859Y0137257
X0139192Y0136398
X0138811Y0135763
X0139573Y0135733
X0142113Y0132461
X01397Y0129286
X0137795Y0129413
X0133985Y0131191
X0133858Y0134112
X0132538Y0132854
X013133Y0133108
X0130695Y0134378
X0130429Y0135509
X012954Y0136398
X0128917Y0138061
X0127889Y0137287
X0126885Y0137934
X0125857Y0138684
X0125334Y0139939
X0125857Y0141224
X0126619Y0141194
X0126238Y0141859
X0122492Y0144589
X0121793Y0151257
X0133289Y0153247
X0134366Y0137541
X0133985Y0136906
X0134747Y0136876
X0132067Y012813
X0133731Y0125095
X0138049Y012319
X0127254Y0123952
X0122301
X0120904
X0122428Y0120269
X0128397Y0119761
X0128016Y0119126
X0128778Y0119096
X0121539Y0129413
X0122682Y0135001
X0117221Y0131826
X0115189Y0132588
X0115062Y0137922
X0113284Y0140843
X0112395
X011176Y0140208
X0113792Y0141478
X0107569Y0141194
X0106807Y0141224
X0107315Y0141732
Y0142367
X010414Y014224
X0102743
X0102489Y0139573
X01036Y0139541
X010541Y0139446
X0101092Y0139573
X0097663Y014224
X0096139
X009017Y0143891
Y0144653
Y0145415
Y0146177
X0089916Y013843
X0090055Y0136537
X0089928Y0134886
X0089916Y013335
X0088404Y0134124
X0088392Y0135763
Y0137414
X0088265Y0132334
X0091313Y0130048
X0094615Y0128651
X0095135Y013387
X0096786
X0099949Y0132969
X0100457Y0128651
X0099072Y0124472
X0108839Y0126492
X0109601Y012573
X0111125Y0125857
X0112395Y0122809
X0113919Y0119761
X0117221Y0122809
X0118364Y0123952
X0108204Y0127508
X0108077Y0128524
X0107061Y0129032
X010541Y0130048
X0107315Y0132588
X010795
X0108585
X010922
X0107696Y0135509
X0117729Y0152146
X011557Y015494
X009652Y0151511
X0084709Y0130302
X0084142Y0129735
X0083578Y0129171
X0087884Y0122555
X0089123Y0121697
X0090043Y0120904
X0070739Y0144907
X0065913Y0149733
X0057421Y0151494
X0058007Y0152908
X0057421Y0154322
X0056007Y0154908
X0054593Y0154322
X0054007Y0152908
X0054593Y0151494
X0056007Y0150908
T02
X0145542Y0082015
Y0086895
T03
X0162033Y0079365
X0174033
X0142033
X0130033
X0118033
X0106033
X0094033
X0090033
X0086033
X0082033
X0070033
X0066033
X0062033
Y0087365
X0066033
X0060033Y0091365
X0056033
X0054033Y0087365
Y0095365
X0056033Y0099365
X0060033
X0062033Y0095365
Y0103365
X0060033Y0107365
X0056033
X0054033Y0103365
Y0111365
X0056033Y0115365
X0062033Y0111365
X0070033
X0074033
X0078033
X0080033Y0107365
X0086033Y0111365
X0094033
X0098033
X0100033Y0107365
X0096033
X0090033Y0103365
Y0087365
X0094033
X0096033Y0083365
X0092033
X0088033
X0084033
X0106033Y0087365
X0118033
X0110033Y0103365
X0134033Y0095365
X0138033
X0142033
X0144033Y0083365
X0156033Y0091365
X0158033Y0095365
X0150033Y0111365
X0168033Y0115365
X0172033
X0176033
X0180033
X0184033
X0188033
Y0107365
Y0099365
X0186033Y0095365
X0182033
X0184033Y0091365
X0188033
X0186033Y0087365
X0184033Y0083365
X0180033
X0172033
X0164033
Y0091365
X0160033
X0168033
X0166033Y0095365
X0168033Y0099365
X0174033Y0103365
Y0111365
X0178033
X0174033Y0119365
X0176033Y0123365
X0178033Y0127365
X0182033
X0188033Y0123365
X0186033Y0119365
X0188033Y0139365
X0186033Y0143365
X0182033
Y0151365
X0178033
X0174033
X0176033Y0147365
X0172033
X0168033
X0164033
X0160033
Y0139365
X0172033
X0176033
X0172033Y0131365
X0168033
X0166033Y0151365
X0188033Y0147365
X0158033Y0143365
X0146033
X0148033Y0147365
X0144033
X0150033Y0151365
X0152033Y0131365
X0142033Y0127365
X0110033Y0143365
X0096033Y0147365
X0092033
X0088033
X0086033Y0151365
X0082033Y0143365
X0084033Y0131365
X0082033Y0119365
X0086033
X0094033
X0098033
X0096033Y0123365
X0078033Y0119365
X0066033
X0062033
X0060033Y0123365
X0056033
X0054033Y0119365
Y0127365
X0056033Y0131365
X0060033
X0062033Y0127365
Y0135365
X0060033Y0139365
X0056033
X0054033Y0135365
Y0143365
X0056033Y0147365
X0060033
X0064033
X0068033
X0062033Y0151365
X0078033Y0143365
T04
X0064516Y0090043
Y0092583
Y0095123
Y0097663
Y0100203
Y0102743
Y0105283
Y0107823
Y0110363
Y0112903
X0067056
Y0110363
Y0107823
Y0105283
Y0102743
Y0100203
Y0097663
Y0095123
Y0092583
Y0090043
X0180897Y0106836
X0183397
Y0108936
Y0111536
Y0113636
X0180897
X0112141Y014732
X0109474
X0106934
X0104267
X01016
X0098933
Y0155321
X01016
X0104267
X0106934
X0109474
X0112141
X0083058Y0152273
X0080518
Y0149733
X0083058
X0077978
X0075438
X0072898
Y0152273
X0075438
X0077978
X0067056Y0143764
X0064516
Y0141224
X0067056
Y0138684
X0064516
Y0136144
X0067056
Y0133604
X0064516
Y0131064
X0067056
Y0128524
X0064516
Y0125984
X0067056
Y0123444
X0064516
T05
X0172387Y0080772
X0175387
X0178387
X0178887Y0092349
X0176887
Y0094849
X0178887
T06
X0082169Y0084963
X0089789
X013589Y0151638
X013843
X014097
T07
X0161036Y0148844
Y0151384
Y0153924
T08
X0179705Y013004
Y013233
Y013462
Y013691
Y01392
X0182245Y014034
Y013805
Y013576
Y013347
Y013118
X0184785Y013004
Y013233
Y013462
Y013691
Y01392
T09
X0098869Y0079947
X0103314
X0110299
X0114744
Y0086932
X0110299
X0103314
X0098869
X0121729Y0086804
X0126174
X013316
X0137605
Y007982
X013316
X0126174
X0121729
T10
X0169787Y0080772
X0180987
X0155027Y0148757
Y0153757
X0150027
Y0148757
X0152527Y0151257
T11
X0181597Y0087579
Y0099619
T12
X0188214Y0152908
T13
X0056007Y0080772
X0188214
X0056007Y0152908
T14
X0182245Y012162
Y014762
M30
